<mxfile host="app.diagrams.net" modified="2024-03-19T08:01:28.549Z" agent="Mozilla/5.0 (Windows NT 10.0; Win64; x64) AppleWebKit/537.36 (KHTML, like Gecko) Chrome/122.0.0.0 Safari/537.36 Edg/122.0.0.0" etag="ywEpO9z3U0v81IV1M-kF" version="23.0.2" type="device">
  <diagram name="Страница — 1" id="gUQ6jLORVQmq82pv6f3c">
    <mxGraphModel dx="940" dy="617" grid="1" gridSize="10" guides="1" tooltips="1" connect="1" arrows="1" fold="1" page="1" pageScale="1" pageWidth="1169" pageHeight="1654" math="0" shadow="0">
      <root>
        <mxCell id="0" />
        <mxCell id="1" parent="0" />
        <mxCell id="hHMOX-z--9hsk5hNC3O8-4" value="" style="rounded=0;whiteSpace=wrap;html=1;fillColor=none;dashed=1;dashPattern=8 8;" vertex="1" parent="1">
          <mxGeometry x="130" y="165" width="360" height="60" as="geometry" />
        </mxCell>
        <mxCell id="hHMOX-z--9hsk5hNC3O8-5" value="" style="rounded=0;whiteSpace=wrap;html=1;fillColor=none;dashed=1;dashPattern=8 8;" vertex="1" parent="1">
          <mxGeometry x="130" y="225" width="360" height="105" as="geometry" />
        </mxCell>
        <mxCell id="hHMOX-z--9hsk5hNC3O8-1" value="МРД - Мандатное раззделение доступа" style="rounded=0;whiteSpace=wrap;html=1;" vertex="1" parent="1">
          <mxGeometry x="160" y="170" width="200" height="50" as="geometry" />
        </mxCell>
        <mxCell id="hHMOX-z--9hsk5hNC3O8-2" value="ЗПС - Замкнутая программная среда" style="rounded=0;whiteSpace=wrap;html=1;" vertex="1" parent="1">
          <mxGeometry x="160" y="230" width="200" height="50" as="geometry" />
        </mxCell>
        <mxCell id="hHMOX-z--9hsk5hNC3O8-3" value="МКЦ - Мандатный контроль целостности" style="rounded=0;whiteSpace=wrap;html=1;" vertex="1" parent="1">
          <mxGeometry x="150" y="270" width="200" height="50" as="geometry" />
        </mxCell>
        <mxCell id="hHMOX-z--9hsk5hNC3O8-6" value="Дискреционный доступ" style="rounded=0;whiteSpace=wrap;html=1;" vertex="1" parent="1">
          <mxGeometry x="150" y="340" width="200" height="50" as="geometry" />
        </mxCell>
        <mxCell id="hHMOX-z--9hsk5hNC3O8-7" value="" style="rounded=0;whiteSpace=wrap;html=1;fillColor=none;dashed=1;dashPattern=8 8;" vertex="1" parent="1">
          <mxGeometry x="130" y="330" width="360" height="70" as="geometry" />
        </mxCell>
        <mxCell id="hHMOX-z--9hsk5hNC3O8-8" value="&lt;font style=&quot;font-size: 17px;&quot;&gt;&lt;b&gt;смоленск&lt;/b&gt;&lt;/font&gt;" style="text;html=1;align=center;verticalAlign=middle;resizable=0;points=[];autosize=1;strokeColor=none;fillColor=none;" vertex="1" parent="1">
          <mxGeometry x="500" y="180" width="100" height="30" as="geometry" />
        </mxCell>
        <mxCell id="hHMOX-z--9hsk5hNC3O8-9" value="&lt;span style=&quot;font-size: 17px;&quot;&gt;&lt;b&gt;воронеж&lt;/b&gt;&lt;/span&gt;" style="text;html=1;align=center;verticalAlign=middle;resizable=0;points=[];autosize=1;strokeColor=none;fillColor=none;" vertex="1" parent="1">
          <mxGeometry x="500" y="262.5" width="100" height="30" as="geometry" />
        </mxCell>
        <mxCell id="hHMOX-z--9hsk5hNC3O8-10" value="&lt;span style=&quot;font-size: 17px;&quot;&gt;&lt;b&gt;орел&lt;/b&gt;&lt;/span&gt;" style="text;html=1;align=center;verticalAlign=middle;resizable=0;points=[];autosize=1;strokeColor=none;fillColor=none;" vertex="1" parent="1">
          <mxGeometry x="520" y="350" width="60" height="30" as="geometry" />
        </mxCell>
      </root>
    </mxGraphModel>
  </diagram>
</mxfile>
